<?xml version="1.0" encoding="UTF-8" standalone="no"?>
<svg
   shape-rendering="geometricPrecision"
   text-rendering="geometricPrecision"
   image-rendering="optimizeQuality"
   fill-rule="evenodd"
   clip-rule="evenodd"
   viewBox="0 0 200 200"
   version="1.1"
   id="svg1"
   sodipodi:docname="logo.svg"
   width="200"
   height="200"
   inkscape:version="1.3.2 (091e20e, 2023-11-25)"
   inkscape:export-filename="favicon.ico"
   inkscape:export-xdpi="15.36"
   inkscape:export-ydpi="15.36"
   xmlns:inkscape="http://www.inkscape.org/namespaces/inkscape"
   xmlns:sodipodi="http://sodipodi.sourceforge.net/DTD/sodipodi-0.dtd"
   xmlns="http://www.w3.org/2000/svg"
   xmlns:svg="http://www.w3.org/2000/svg">
     <style>
    g, path {
      fill: #591170;
      stroke: #591170;
    }
    @media (prefers-color-scheme: dark) {
      g, path {
        fill: white;
        stroke: white;
      }
    }
  </style>
  <defs
     id="defs1">
    <linearGradient
       id="a"
       x1="17.249001"
       y1="-335.59698"
       x2="14.973"
       y2="-309.99399"
       gradientTransform="matrix(1,0,0,-1,0,-306)"
       gradientUnits="userSpaceOnUse">
      <stop
         offset="0"
         stop-color="#ffffff"
         stop-opacity="0"
         id="stop1" />
      <stop
         offset="0.01"
         stop-color="#f7f6f8"
         stop-opacity="0.04"
         id="stop2" />
      <stop
         offset="0.09"
         stop-color="#aa9cb3"
         stop-opacity="0.39"
         id="stop3" />
      <stop
         offset="0.2"
         stop-color="#6f567e"
         stop-opacity="0.66"
         id="stop4" />
      <stop
         offset="0.32"
         stop-color="#452459"
         stop-opacity="0.86"
         id="stop5" />
      <stop
         offset="0.5"
         stop-color="#2d0843"
         stop-opacity="0.97"
         id="stop6" />
      <stop
         offset="1"
         stop-color="#26003d"
         id="stop7" />
    </linearGradient>
  </defs>
  <sodipodi:namedview
     id="namedview1"
     pagecolor="#ffffff"
     bordercolor="#000000"
     borderopacity="0.25"
     inkscape:showpageshadow="2"
     inkscape:pageopacity="0.0"
     inkscape:pagecheckerboard="0"
     inkscape:deskcolor="#d1d1d1"
     inkscape:zoom="1.7224677"
     inkscape:cx="-110.88742"
     inkscape:cy="103.34011"
     inkscape:window-width="2560"
     inkscape:window-height="1027"
     inkscape:window-x="0"
     inkscape:window-y="25"
     inkscape:window-maximized="1"
     inkscape:current-layer="svg1" />
  <g
     id="g10"
     style="fill-opacity:1">
    <g
       id="g7"
       style="fill-opacity:1">
      <g
         id="g6"
         style="fill-opacity:1">
        <g
           id="g5"
           style="fill-opacity:1">
          <g
             id="g4"
             style="fill-opacity:1">
            <g
               id="g3"
               style="fill-opacity:1">
              <g
                 id="g2"
                 style="fill-opacity:1">
                <path
                   fill-rule="nonzero"
                   d="m 25.965169,59.068341 h 49.395349 c 2.802419,0 5.348505,1.144175 7.190999,2.98702 1.842845,1.842493 2.987019,4.38858 2.987019,7.190998 v 27.262573 h 12.64288 V 33.823369 c 0,-2.802418 1.144526,-5.348857 2.987374,-7.19135 1.84249,-1.842493 4.38858,-2.987019 7.191,-2.987019 h 24.66831 c 1.94235,0 3.51691,1.574558 3.51691,3.516912 0,1.942353 -1.57456,3.516912 -3.51691,3.516912 h -24.66831 c -0.86147,0 -1.64735,0.355137 -2.21838,0.926169 a 3.1339969,3.1339969 0 0 0 -0.92582,2.218376 v 62.685563 h 27.83783 c 1.94235,0 3.51691,1.574558 3.51691,3.516908 0,1.94236 -1.57456,3.51692 -3.51691,3.51692 h -27.83783 v 62.68556 a 3.1339969,3.1339969 0 0 0 0.92582,2.21838 l -0.007,0.007 a 3.1494682,3.1494682 0 0 0 2.22506,0.91948 h 24.69363 c 1.94235,0 3.51691,1.57456 3.51691,3.51692 0,1.94235 -1.57456,3.51691 -3.51691,3.51691 h -24.69361 c -2.79293,0 -5.33409,-1.14453 -7.17764,-2.98702 l -0.006,-0.007 -0.007,0.007 c -1.842846,-1.84285 -2.987372,-4.38893 -2.987372,-7.19135 v -62.68588 h -12.64288 v 34.77565 c 0,2.80242 -1.144174,5.34851 -2.987019,7.19135 -1.842494,1.8425 -4.38858,2.98702 -7.190999,2.98702 H 25.965169 c -2.802418,0 -5.348505,-1.14452 -7.19135,-2.98702 -1.842493,-1.84284 -2.987019,-4.38893 -2.987019,-7.19135 V 69.246359 c 0,-2.802418 1.144526,-5.348505 2.987019,-7.190998 1.842845,-1.842845 4.388932,-2.98702 7.19135,-2.98702 z M 145.1003,155.75564 h 34.94514 c 2.29221,0 4.16776,1.87625 4.16776,4.16777 v 25.90883 c 0,2.29116 -1.87625,4.16776 -4.16776,4.16776 H 145.1003 c -2.29116,0 -4.16741,-1.87555 -4.16741,-4.16776 v -25.90883 c 0,-2.29222 1.87519,-4.16777 4.16741,-4.16777 z m 0,-72.851974 h 34.94514 c 2.29221,0 4.16776,1.876249 4.16776,4.167762 v 25.908832 c 0,2.29116 -1.87625,4.16776 -4.16776,4.16776 H 145.1003 c -2.29116,0 -4.16741,-1.87554 -4.16741,-4.16776 V 87.071428 c 0,-2.292217 1.87519,-4.167762 4.16741,-4.167762 z M 145.1003,10 h 34.94514 c 2.29221,0 4.16776,1.876249 4.16776,4.167762 v 25.908481 c 0,2.291513 -1.87625,4.167762 -4.16776,4.167762 H 145.1003 c -2.29116,0 -4.16741,-1.875194 -4.16741,-4.167762 V 14.167762 C 140.93289,11.875546 142.80808,10 145.1003,10 Z m -66.595588,90.38063 a 3.4789369,3.4789369 0 0 1 -0.01758,-0.35479 c 0,-0.119547 0.0056,-0.238395 0.01758,-0.354781 v -30.4247 A 3.1339969,3.1339969 0 0 0 77.578894,67.027983 3.1339969,3.1339969 0 0 0 75.360518,66.102165 H 25.965169 c -0.861471,0 -1.647343,0.354786 -2.218727,0.925818 a 3.1339969,3.1339969 0 0 0 -0.925818,2.218376 v 69.072051 a 3.1339969,3.1339969 0 0 0 0.925818,2.21838 c 0.571384,0.57103 1.357256,0.92617 2.218727,0.92617 h 49.395349 c 0.861471,0 1.647344,-0.35514 2.218376,-0.92617 a 3.1339969,3.1339969 0 0 0 0.925818,-2.21838 z"
                   id="path1"
                   style="stroke-width:0.351621;fill-opacity:1" />
                <g
                   id="g1"
                   style="fill-opacity:1">
                  <path
                     d="m 52.957674,89.165081 c 3.712445,8.185593 13.642655,11.606969 12.751596,22.274669 -1.03927,12.53017 -9.912353,15.68548 -14.849779,15.90869 -8.23542,0.639 -15.56393,-5.19652 -16.785466,-13.36587 -2.8696,-13.29087 9.696285,-33.672715 16.935463,-36.586957 -0.23853,4.019461 0.427194,8.041259 1.948186,11.769468 z M 52.66125,122.8378 c -8.1e-5,-8.4e-4 0.0012,-0.001 0.0018,-0.002 z"
                     style="fill-opacity:1;stroke-width:1.78569"
                     id="path7"
                     sodipodi:nodetypes="ccccccccc" />
                  <g
                     style="opacity:0.25;fill-opacity:1"
                     id="g8"
                     transform="matrix(1.7856878,0,0,1.7856878,21.172431,73.824237)">
                    <path
                       d="m 18.248,10.618 c 4.47,4.823 6.445,4.979 6.237,10.478 -0.249,6.476 -4.543,8.191 -7.058,8.42 C 13.227,30.067 9.932,27.988 9.069,23.83 7.312,17.063 12.978,6.023 16.637,4.36 a 15.323,15.323 0 0 0 1.621,6.24 z"
                       style="fill-opacity:1"
                       id="path8" />
                  </g>
                  <g
                     style="opacity:0.75;fill-opacity:1"
                     id="g9"
                     transform="matrix(1.7856878,0,0,1.7856878,21.172431,73.824237)">
                    <path
                       d="M 17.385,9.921 C 20.369,14 24.319,13.7 25,19.641 c 0.094,6.923 -3.6,9.283 -6.237,9.948 -4.5,1.279 -8.514,-0.645 -10.094,-5 -3.035,-7 2.651,-18.514 6.31,-20.915 a 15.083,15.083 0 0 0 2.37,6.237 z"
                       style="fill-opacity:1"
                       id="path9" />
                  </g>
                </g>
              </g>
            </g>
          </g>
        </g>
      </g>
    </g>
  </g>
</svg>
